<svg id="js-v2-animated" xmlns="http://www.w3.org/2000/svg" xmlns:xlink="http://www.w3.org/1999/xlink" viewBox="0 0 48 48" shape-rendering="geometricPrecision" text-rendering="geometricPrecision" width="48" height="48">
<style><![CDATA[
#js-v2-animated-s-path1_ts {animation: js-v2-animated-s-path1_ts__ts 1000ms linear infinite normal forwards}@keyframes js-v2-animated-s-path1_ts__ts { 0% {transform: translate(24px,24px) scale(1,1)} 25% {transform: translate(24px,24px) scale(1.34,1.34)} 50% {transform: translate(24px,24px) scale(1,1)} 75% {transform: translate(24px,24px) scale(1.34,1.34)} 100% {transform: translate(24px,24px) scale(1,1)}} #js-v2-animated-u-j_ts {animation: js-v2-animated-u-j_ts__ts 1000ms linear infinite normal forwards}@keyframes js-v2-animated-u-j_ts__ts { 0% {transform: translate(27.089444px,30.483043px) scale(0.81,0.96)} 25% {transform: translate(27.089444px,30.483043px) scale(1.17,1.32)} 50% {transform: translate(27.089444px,30.483043px) scale(0.81,0.96)} 75% {transform: translate(27.089444px,30.483043px) scale(1.17,1.32)} 100% {transform: translate(27.089444px,30.483043px) scale(0.81,0.96)}} #js-v2-animated-u-s_ts {animation: js-v2-animated-u-s_ts__ts 1000ms linear infinite normal forwards}@keyframes js-v2-animated-u-s_ts__ts { 0% {transform: translate(26.942254px,30.335852px) scale(0.79,0.72)} 25% {transform: translate(26.942254px,30.335852px) scale(1.15,1.08)} 50% {transform: translate(26.942254px,30.335852px) scale(0.79,0.72)} 75% {transform: translate(26.942254px,30.335852px) scale(1.15,1.08)} 100% {transform: translate(26.942254px,30.335852px) scale(0.79,0.72)}}
]]></style>
<g id="js-v2-animated-s-path1_ts" transform="translate(24,24) scale(1,1)"><path id="js-v2-animated-s-path1" d="M6,42L6,6h36v36h-36Z" transform="translate(-24,-24)" fill="#ffd600"/></g><g id="js-v2-animated-u-j_ts" transform="translate(27.089444,30.483043) scale(0.81,0.96)"><path id="js-v2-animated-u-j" d="M4.366097,-10.171566c.008177.365653-.030692,11.085138-.030692,11.485719-.000002,1.762245-.705873,2.91701-2.762114,3.333725-2.762119.520892-5.002506-.911566-5.831147-2.448203" transform="translate(-8.6343,1.313262)" fill="none" stroke="#000001" stroke-width="4" stroke-dashoffset="184.24" stroke-dasharray="23.03"/></g><g id="js-v2-animated-u-s_ts" transform="translate(26.942254,30.335852) scale(0.79,0.72)"><path id="js-v2-animated-u-s" style="mix-blend-mode:multiply" d="M-5.432283,10.352924c.328612.45061,2.011868,4.423676,6.58485,3.726905c2.065655-.314737,3.455141-1.727981,3.658389-3.260867.496759-3.746531-2.139729-5.03492-4.242711-5.908595-4.293509-1.78372-4.398719-3.674636-4.603944-4.741387C-4.24108,-2.624838,-2.308249,-4.179454,0,-4.179454c1.96137-.112669,3.02934,1.058935,4.179465,2.726218" transform="translate(7.067049,-5.448146)" fill="none" stroke="#000001" stroke-width="4" stroke-dashoffset="80.78" stroke-dasharray="40.39"/></g></svg>
