<svg id="js-v2-static" xmlns="http://www.w3.org/2000/svg" xmlns:xlink="http://www.w3.org/1999/xlink" viewBox="0 0 48 48" shape-rendering="geometricPrecision" text-rendering="geometricPrecision" width="48" height="48"><path id="js-v2-static-s-path1" d="M6,42L6,6h36v36h-36Z" fill="#ffd600"/><path id="js-v2-static-u-j" d="M4.366097,-10.171566c.008177.365653-.030692,11.085138-.030692,11.485719-.000002,1.762245-.705873,2.91701-2.762114,3.333725-2.762119.520892-5.002506-.911566-5.831147-2.448203" transform="matrix(.81 0 0 0.96 20.095661 31.743775)" fill="none" stroke="#000001" stroke-width="4" stroke-dashoffset="184.24" stroke-dasharray="23.03"/><path id="js-v2-static-u-s" style="mix-blend-mode:multiply" d="M-5.432283,10.352924c.328612.45061,2.011868,4.423676,6.58485,3.726905c2.065655-.314737,3.455141-1.727981,3.658389-3.260867.496759-3.746531-2.139729-5.03492-4.242711-5.908595-4.293509-1.78372-4.398719-3.674636-4.603944-4.741387C-4.24108,-2.624838,-2.308249,-4.179454,0,-4.179454c1.96137-.112669,3.02934,1.058935,4.179465,2.726218" transform="matrix(.79 0 0 0.72 32.525223 26.413187)" fill="none" stroke="#000001" stroke-width="4" stroke-dashoffset="80.78" stroke-dasharray="40.39"/></svg>
